<?xml version="1.0" standalone="no"?><!DOCTYPE svg PUBLIC "-//W3C//DTD SVG 1.1//EN" "http://www.w3.org/Graphics/SVG/1.1/DTD/svg11.dtd"><svg t="1542094726099" class="icon" style="" viewBox="0 0 1024 1024" version="1.1" xmlns="http://www.w3.org/2000/svg" p-id="701" xmlns:xlink="http://www.w3.org/1999/xlink" width="200" height="200"><defs><style type="text/css"></style></defs><path d="M 512 65.29 c -246.709 0 -446.709 200 -446.709 446.709 S 265.291 958.708 512 958.708 c 246.713 0 446.709 -200 446.709 -446.709 S 758.713 65.29 512 65.29 Z m -27.795 219.366 c 0 -15.4089 12.5109 -27.9189 27.9158 -27.9189 s 27.9618 12.5109 27.9618 27.9189 v 175.739 c 0 15.4089 -12.557 27.9189 -27.9618 27.9189 c -15.4049 0 -27.9158 -12.5109 -27.9158 -27.9189 V 284.656 Z m 204.647 409.481 c -97.5078 97.5078 -256.186 97.5078 -353.724 -0.030699 c -97.5078 -97.5078 -97.5078 -256.186 0 -353.692 c 10.6721 -10.6721 27.9895 -10.6721 38.6615 0 s 10.6721 27.9895 0 38.6615 c -76.1903 76.1944 -76.1903 200.175 0 276.369 c 76.1903 76.1903 200.207 76.221 276.397 0.030699 c 76.1944 -76.1944 76.1944 -200.242 0 -276.432 c -10.6721 -10.6721 -10.6721 -27.9895 0 -38.6615 c 10.6762 -10.6721 27.9895 -10.6721 38.6656 0 c 97.5344 97.5385 97.5344 256.216 0 353.755 Z" fill="#93929a" p-id="702"></path></svg>