<?xml version="1.0" standalone="no"?><!DOCTYPE svg PUBLIC "-//W3C//DTD SVG 1.1//EN" "http://www.w3.org/Graphics/SVG/1.1/DTD/svg11.dtd"><svg t="1542094487905" class="icon" style="" viewBox="0 0 1024 1024" version="1.1" xmlns="http://www.w3.org/2000/svg" p-id="1616" xmlns:xlink="http://www.w3.org/1999/xlink" width="200" height="200"><defs><style type="text/css"></style></defs><path d="M512 65.290005c-246.708891 0-446.708971 200.00008-446.708971 446.708972S265.291109 958.707948 512 958.707948c246.712985 0 446.708971-200.00008 446.708971-446.708971S758.712985 65.290005 512 65.290005z m-27.795043 219.36615c0-15.408945 12.510942-27.918863 27.915793-27.918863s27.961842 12.510942 27.961842 27.918863v175.738513c0 15.408945-12.55699 27.918863-27.961842 27.918863-15.404852 0-27.915793-12.510942-27.915793-27.918863V284.656155z m204.646913 409.481092c-97.507778 97.507778-256.18573 97.507778-353.724207-0.030699-97.507778-97.507778-97.507778-256.18573 0-353.692485 10.67206-10.67206 27.989471-10.67206 38.661532 0s10.67206 27.989471 0 38.661532c-76.190263 76.194356-76.190263 200.175065 0 276.369421 76.190263 76.190263 200.206788 76.220962 276.397051 0.030699 76.194356-76.194356 76.194356-200.24158 0-276.431843-10.67206-10.67206-10.67206-27.989471 0-38.661531 10.676154-10.67206 27.989471-10.67206 38.665624 0 97.534384 97.538477 97.534384 256.216429 0 353.754906z" fill="#1296db" p-id="1617"></path></svg>